<svg xmlns="http://www.w3.org/2000/svg" viewBox="0 0 1600 1000" width="1600" height="1000">
  <defs>
    <linearGradient id="bg" x1="0" y1="0" x2="1" y2="1">
      <stop offset="0" stop-color="#1e293b"/><stop offset="1" stop-color="#020617"/>
    </linearGradient>
    <linearGradient id="beam" x1="0" y1="0" x2="1" y2="1">
      <stop offset="0" stop-color="#fdba74"/><stop offset="1" stop-color="#ea580c"/>
    </linearGradient>
    <radialGradient id="glow" cx="78%" cy="12%" r="60%">
      <stop offset="0" stop-color="rgba(249,115,22,0.22)"/><stop offset="1" stop-color="rgba(249,115,22,0)"/>
    </radialGradient>
    <radialGradient id="vig" cx="50%" cy="50%" r="75%">
      <stop offset="55%" stop-color="rgba(0,0,0,0)"/><stop offset="100%" stop-color="rgba(0,0,0,0.55)"/>
    </radialGradient>
    <pattern id="g" width="48" height="48" patternUnits="userSpaceOnUse">
    <path d="M48 0H0V48" fill="none" stroke="rgba(148,163,184,0.08)" stroke-width="1"/>
  </pattern>
  </defs>
  <rect width="1600" height="1000" fill="url(#bg)"/>
  <rect width="1600" height="1000" fill="url(#g)"/>
  <rect width="1600" height="1000" fill="url(#glow)"/>
  <line x1="-900" y1="0" x2="-400" y2="1000" stroke="rgba(203,213,225,0.12)" stroke-width="10"/><line x1="-400" y1="0" x2="-900" y2="1000" stroke="rgba(249,115,22,0.07)" stroke-width="10"/><line x1="-810" y1="0" x2="-310" y2="1000" stroke="rgba(203,213,225,0.12)" stroke-width="10"/><line x1="-310" y1="0" x2="-810" y2="1000" stroke="rgba(249,115,22,0.07)" stroke-width="10"/><line x1="-720" y1="0" x2="-220" y2="1000" stroke="rgba(203,213,225,0.12)" stroke-width="10"/><line x1="-220" y1="0" x2="-720" y2="1000" stroke="rgba(249,115,22,0.07)" stroke-width="10"/><line x1="-630" y1="0" x2="-130" y2="1000" stroke="rgba(203,213,225,0.12)" stroke-width="10"/><line x1="-130" y1="0" x2="-630" y2="1000" stroke="rgba(249,115,22,0.07)" stroke-width="10"/><line x1="-540" y1="0" x2="-40" y2="1000" stroke="rgba(203,213,225,0.12)" stroke-width="10"/><line x1="-40" y1="0" x2="-540" y2="1000" stroke="rgba(249,115,22,0.07)" stroke-width="10"/><line x1="-450" y1="0" x2="50" y2="1000" stroke="rgba(203,213,225,0.12)" stroke-width="10"/><line x1="50" y1="0" x2="-450" y2="1000" stroke="rgba(249,115,22,0.07)" stroke-width="10"/><line x1="-360" y1="0" x2="140" y2="1000" stroke="rgba(203,213,225,0.12)" stroke-width="10"/><line x1="140" y1="0" x2="-360" y2="1000" stroke="rgba(249,115,22,0.07)" stroke-width="10"/><line x1="-270" y1="0" x2="230" y2="1000" stroke="rgba(203,213,225,0.12)" stroke-width="10"/><line x1="230" y1="0" x2="-270" y2="1000" stroke="rgba(249,115,22,0.07)" stroke-width="10"/><line x1="-180" y1="0" x2="320" y2="1000" stroke="rgba(203,213,225,0.12)" stroke-width="10"/><line x1="320" y1="0" x2="-180" y2="1000" stroke="rgba(249,115,22,0.07)" stroke-width="10"/><line x1="-90" y1="0" x2="410" y2="1000" stroke="rgba(203,213,225,0.12)" stroke-width="10"/><line x1="410" y1="0" x2="-90" y2="1000" stroke="rgba(249,115,22,0.07)" stroke-width="10"/><line x1="0" y1="0" x2="500" y2="1000" stroke="rgba(203,213,225,0.12)" stroke-width="10"/><line x1="500" y1="0" x2="0" y2="1000" stroke="rgba(249,115,22,0.07)" stroke-width="10"/><line x1="90" y1="0" x2="590" y2="1000" stroke="rgba(203,213,225,0.12)" stroke-width="10"/><line x1="590" y1="0" x2="90" y2="1000" stroke="rgba(249,115,22,0.07)" stroke-width="10"/><line x1="180" y1="0" x2="680" y2="1000" stroke="rgba(203,213,225,0.12)" stroke-width="10"/><line x1="680" y1="0" x2="180" y2="1000" stroke="rgba(249,115,22,0.07)" stroke-width="10"/><line x1="270" y1="0" x2="770" y2="1000" stroke="rgba(203,213,225,0.12)" stroke-width="10"/><line x1="770" y1="0" x2="270" y2="1000" stroke="rgba(249,115,22,0.07)" stroke-width="10"/><line x1="360" y1="0" x2="860" y2="1000" stroke="rgba(203,213,225,0.12)" stroke-width="10"/><line x1="860" y1="0" x2="360" y2="1000" stroke="rgba(249,115,22,0.07)" stroke-width="10"/><line x1="450" y1="0" x2="950" y2="1000" stroke="rgba(203,213,225,0.12)" stroke-width="10"/><line x1="950" y1="0" x2="450" y2="1000" stroke="rgba(249,115,22,0.07)" stroke-width="10"/><line x1="540" y1="0" x2="1040" y2="1000" stroke="rgba(203,213,225,0.12)" stroke-width="10"/><line x1="1040" y1="0" x2="540" y2="1000" stroke="rgba(249,115,22,0.07)" stroke-width="10"/><line x1="630" y1="0" x2="1130" y2="1000" stroke="rgba(203,213,225,0.12)" stroke-width="10"/><line x1="1130" y1="0" x2="630" y2="1000" stroke="rgba(249,115,22,0.07)" stroke-width="10"/><line x1="720" y1="0" x2="1220" y2="1000" stroke="rgba(203,213,225,0.12)" stroke-width="10"/><line x1="1220" y1="0" x2="720" y2="1000" stroke="rgba(249,115,22,0.07)" stroke-width="10"/><line x1="810" y1="0" x2="1310" y2="1000" stroke="rgba(203,213,225,0.12)" stroke-width="10"/><line x1="1310" y1="0" x2="810" y2="1000" stroke="rgba(249,115,22,0.07)" stroke-width="10"/><line x1="900" y1="0" x2="1400" y2="1000" stroke="rgba(203,213,225,0.12)" stroke-width="10"/><line x1="1400" y1="0" x2="900" y2="1000" stroke="rgba(249,115,22,0.07)" stroke-width="10"/><line x1="990" y1="0" x2="1490" y2="1000" stroke="rgba(203,213,225,0.12)" stroke-width="10"/><line x1="1490" y1="0" x2="990" y2="1000" stroke="rgba(249,115,22,0.07)" stroke-width="10"/><line x1="1080" y1="0" x2="1580" y2="1000" stroke="rgba(203,213,225,0.12)" stroke-width="10"/><line x1="1580" y1="0" x2="1080" y2="1000" stroke="rgba(249,115,22,0.07)" stroke-width="10"/><line x1="1170" y1="0" x2="1670" y2="1000" stroke="rgba(203,213,225,0.12)" stroke-width="10"/><line x1="1670" y1="0" x2="1170" y2="1000" stroke="rgba(249,115,22,0.07)" stroke-width="10"/><line x1="1260" y1="0" x2="1760" y2="1000" stroke="rgba(203,213,225,0.12)" stroke-width="10"/><line x1="1760" y1="0" x2="1260" y2="1000" stroke="rgba(249,115,22,0.07)" stroke-width="10"/><line x1="1350" y1="0" x2="1850" y2="1000" stroke="rgba(203,213,225,0.12)" stroke-width="10"/><line x1="1850" y1="0" x2="1350" y2="1000" stroke="rgba(249,115,22,0.07)" stroke-width="10"/><line x1="1440" y1="0" x2="1940" y2="1000" stroke="rgba(203,213,225,0.12)" stroke-width="10"/><line x1="1940" y1="0" x2="1440" y2="1000" stroke="rgba(249,115,22,0.07)" stroke-width="10"/><line x1="1530" y1="0" x2="2030" y2="1000" stroke="rgba(203,213,225,0.12)" stroke-width="10"/><line x1="2030" y1="0" x2="1530" y2="1000" stroke="rgba(249,115,22,0.07)" stroke-width="10"/><line x1="1620" y1="0" x2="2120" y2="1000" stroke="rgba(203,213,225,0.12)" stroke-width="10"/><line x1="2120" y1="0" x2="1620" y2="1000" stroke="rgba(249,115,22,0.07)" stroke-width="10"/><line x1="1710" y1="0" x2="2210" y2="1000" stroke="rgba(203,213,225,0.12)" stroke-width="10"/><line x1="2210" y1="0" x2="1710" y2="1000" stroke="rgba(249,115,22,0.07)" stroke-width="10"/><line x1="1800" y1="0" x2="2300" y2="1000" stroke="rgba(203,213,225,0.12)" stroke-width="10"/><line x1="2300" y1="0" x2="1800" y2="1000" stroke="rgba(249,115,22,0.07)" stroke-width="10"/><line x1="1890" y1="0" x2="2390" y2="1000" stroke="rgba(203,213,225,0.12)" stroke-width="10"/><line x1="2390" y1="0" x2="1890" y2="1000" stroke="rgba(249,115,22,0.07)" stroke-width="10"/><line x1="1980" y1="0" x2="2480" y2="1000" stroke="rgba(203,213,225,0.12)" stroke-width="10"/><line x1="2480" y1="0" x2="1980" y2="1000" stroke="rgba(249,115,22,0.07)" stroke-width="10"/><line x1="2070" y1="0" x2="2570" y2="1000" stroke="rgba(203,213,225,0.12)" stroke-width="10"/><line x1="2570" y1="0" x2="2070" y2="1000" stroke="rgba(249,115,22,0.07)" stroke-width="10"/><line x1="2160" y1="0" x2="2660" y2="1000" stroke="rgba(203,213,225,0.12)" stroke-width="10"/><line x1="2660" y1="0" x2="2160" y2="1000" stroke="rgba(249,115,22,0.07)" stroke-width="10"/><line x1="2250" y1="0" x2="2750" y2="1000" stroke="rgba(203,213,225,0.12)" stroke-width="10"/><line x1="2750" y1="0" x2="2250" y2="1000" stroke="rgba(249,115,22,0.07)" stroke-width="10"/>
  <rect width="1600" height="1000" fill="url(#vig)"/>
</svg>