<svg xmlns="http://www.w3.org/2000/svg" viewBox="0 0 1600 1000" width="1600" height="1000">
  <defs>
    <linearGradient id="bg" x1="0" y1="0" x2="1" y2="1">
      <stop offset="0" stop-color="#0f172a"/><stop offset="1" stop-color="#020617"/>
    </linearGradient>
    <linearGradient id="beam" x1="0" y1="0" x2="1" y2="1">
      <stop offset="0" stop-color="#fdba74"/><stop offset="1" stop-color="#ea580c"/>
    </linearGradient>
    <radialGradient id="glow" cx="78%" cy="12%" r="60%">
      <stop offset="0" stop-color="rgba(249,115,22,0.22)"/><stop offset="1" stop-color="rgba(249,115,22,0)"/>
    </radialGradient>
    <radialGradient id="vig" cx="50%" cy="50%" r="75%">
      <stop offset="55%" stop-color="rgba(0,0,0,0)"/><stop offset="100%" stop-color="rgba(0,0,0,0.55)"/>
    </radialGradient>
    <pattern id="g" width="48" height="48" patternUnits="userSpaceOnUse">
    <path d="M48 0H0V48" fill="none" stroke="rgba(148,163,184,0.08)" stroke-width="1"/>
  </pattern>
  </defs>
  <rect width="1600" height="1000" fill="url(#bg)"/>
  <rect width="1600" height="1000" fill="url(#g)"/>
  <rect width="1600" height="1000" fill="url(#glow)"/>
  <rect x="120" y="110" width="1360" height="780" rx="14" fill="rgba(148,163,184,0.04)"/><circle cx="180" cy="160" r="12" fill="rgba(203,213,225,0.12)"/><circle cx="260" cy="160" r="7" fill="rgba(203,213,225,0.12)"/><circle cx="340" cy="160" r="7" fill="rgba(203,213,225,0.12)"/><circle cx="420" cy="160" r="12" fill="rgba(203,213,225,0.12)"/><circle cx="500" cy="160" r="7" fill="rgba(203,213,225,0.12)"/><circle cx="580" cy="160" r="7" fill="rgba(203,213,225,0.12)"/><circle cx="660" cy="160" r="12" fill="rgba(203,213,225,0.12)"/><circle cx="740" cy="160" r="7" fill="rgba(203,213,225,0.12)"/><circle cx="820" cy="160" r="7" fill="rgba(203,213,225,0.12)"/><circle cx="900" cy="160" r="12" fill="rgba(203,213,225,0.12)"/><circle cx="980" cy="160" r="7" fill="rgba(203,213,225,0.12)"/><circle cx="1060" cy="160" r="7" fill="rgba(203,213,225,0.12)"/><circle cx="1140" cy="160" r="12" fill="rgba(203,213,225,0.12)"/><circle cx="1220" cy="160" r="7" fill="rgba(203,213,225,0.12)"/><circle cx="1300" cy="160" r="7" fill="rgba(203,213,225,0.12)"/><circle cx="1380" cy="160" r="12" fill="rgba(203,213,225,0.12)"/><circle cx="180" cy="240" r="7" fill="rgba(203,213,225,0.12)"/><circle cx="260" cy="240" r="7" fill="rgba(203,213,225,0.12)"/><circle cx="340" cy="240" r="12" fill="rgba(203,213,225,0.12)"/><circle cx="420" cy="240" r="7" fill="rgba(203,213,225,0.12)"/><circle cx="500" cy="240" r="7" fill="rgba(203,213,225,0.12)"/><circle cx="580" cy="240" r="12" fill="rgba(203,213,225,0.12)"/><circle cx="660" cy="240" r="7" fill="rgba(203,213,225,0.12)"/><circle cx="740" cy="240" r="7" fill="rgba(203,213,225,0.12)"/><circle cx="820" cy="240" r="12" fill="rgba(203,213,225,0.12)"/><circle cx="900" cy="240" r="7" fill="rgba(203,213,225,0.12)"/><circle cx="980" cy="240" r="7" fill="rgba(203,213,225,0.12)"/><circle cx="1060" cy="240" r="12" fill="rgba(203,213,225,0.12)"/><circle cx="1140" cy="240" r="7" fill="rgba(203,213,225,0.12)"/><circle cx="1220" cy="240" r="7" fill="rgba(203,213,225,0.12)"/><circle cx="1300" cy="240" r="12" fill="rgba(203,213,225,0.12)"/><circle cx="1380" cy="240" r="7" fill="rgba(203,213,225,0.12)"/><circle cx="180" cy="320" r="7" fill="rgba(203,213,225,0.12)"/><circle cx="260" cy="320" r="12" fill="rgba(203,213,225,0.12)"/><circle cx="340" cy="320" r="7" fill="rgba(203,213,225,0.12)"/><circle cx="420" cy="320" r="7" fill="rgba(203,213,225,0.12)"/><circle cx="500" cy="320" r="12" fill="rgba(203,213,225,0.12)"/><circle cx="580" cy="320" r="7" fill="rgba(203,213,225,0.12)"/><circle cx="660" cy="320" r="7" fill="rgba(203,213,225,0.12)"/><circle cx="740" cy="320" r="12" fill="rgba(203,213,225,0.12)"/><circle cx="820" cy="320" r="7" fill="rgba(203,213,225,0.12)"/><circle cx="900" cy="320" r="7" fill="rgba(203,213,225,0.12)"/><circle cx="980" cy="320" r="12" fill="rgba(203,213,225,0.12)"/><circle cx="1060" cy="320" r="7" fill="rgba(203,213,225,0.12)"/><circle cx="1140" cy="320" r="7" fill="rgba(203,213,225,0.12)"/><circle cx="1220" cy="320" r="12" fill="rgba(203,213,225,0.12)"/><circle cx="1300" cy="320" r="7" fill="rgba(203,213,225,0.12)"/><circle cx="1380" cy="320" r="7" fill="rgba(203,213,225,0.12)"/><circle cx="180" cy="400" r="12" fill="rgba(203,213,225,0.12)"/><circle cx="260" cy="400" r="7" fill="rgba(203,213,225,0.12)"/><circle cx="340" cy="400" r="7" fill="rgba(203,213,225,0.12)"/><circle cx="420" cy="400" r="12" fill="rgba(203,213,225,0.12)"/><circle cx="500" cy="400" r="7" fill="rgba(203,213,225,0.12)"/><circle cx="580" cy="400" r="7" fill="rgba(203,213,225,0.12)"/><circle cx="660" cy="400" r="12" fill="rgba(203,213,225,0.12)"/><circle cx="740" cy="400" r="7" fill="rgba(203,213,225,0.12)"/><circle cx="820" cy="400" r="7" fill="rgba(203,213,225,0.12)"/><circle cx="900" cy="400" r="12" fill="rgba(203,213,225,0.12)"/><circle cx="980" cy="400" r="7" fill="rgba(203,213,225,0.12)"/><circle cx="1060" cy="400" r="7" fill="rgba(203,213,225,0.12)"/><circle cx="1140" cy="400" r="12" fill="rgba(203,213,225,0.12)"/><circle cx="1220" cy="400" r="7" fill="rgba(203,213,225,0.12)"/><circle cx="1300" cy="400" r="7" fill="rgba(203,213,225,0.12)"/><circle cx="1380" cy="400" r="12" fill="rgba(203,213,225,0.12)"/><circle cx="180" cy="480" r="7" fill="rgba(203,213,225,0.12)"/><circle cx="260" cy="480" r="7" fill="rgba(203,213,225,0.12)"/><circle cx="340" cy="480" r="12" fill="rgba(203,213,225,0.12)"/><circle cx="420" cy="480" r="7" fill="rgba(203,213,225,0.12)"/><circle cx="500" cy="480" r="7" fill="rgba(203,213,225,0.12)"/><circle cx="580" cy="480" r="12" fill="rgba(203,213,225,0.12)"/><circle cx="660" cy="480" r="7" fill="rgba(203,213,225,0.12)"/><circle cx="740" cy="480" r="7" fill="rgba(203,213,225,0.12)"/><circle cx="820" cy="480" r="12" fill="rgba(203,213,225,0.12)"/><circle cx="900" cy="480" r="7" fill="rgba(203,213,225,0.12)"/><circle cx="980" cy="480" r="7" fill="rgba(203,213,225,0.12)"/><circle cx="1060" cy="480" r="12" fill="rgba(203,213,225,0.12)"/><circle cx="1140" cy="480" r="7" fill="rgba(203,213,225,0.12)"/><circle cx="1220" cy="480" r="7" fill="rgba(203,213,225,0.12)"/><circle cx="1300" cy="480" r="12" fill="rgba(203,213,225,0.12)"/><circle cx="1380" cy="480" r="7" fill="rgba(203,213,225,0.12)"/><circle cx="180" cy="560" r="7" fill="rgba(203,213,225,0.12)"/><circle cx="260" cy="560" r="12" fill="rgba(203,213,225,0.12)"/><circle cx="340" cy="560" r="7" fill="rgba(203,213,225,0.12)"/><circle cx="420" cy="560" r="7" fill="rgba(203,213,225,0.12)"/><circle cx="500" cy="560" r="12" fill="rgba(203,213,225,0.12)"/><circle cx="580" cy="560" r="7" fill="rgba(203,213,225,0.12)"/><circle cx="660" cy="560" r="7" fill="rgba(203,213,225,0.12)"/><circle cx="740" cy="560" r="12" fill="rgba(203,213,225,0.12)"/><circle cx="820" cy="560" r="7" fill="rgba(203,213,225,0.12)"/><circle cx="900" cy="560" r="7" fill="rgba(203,213,225,0.12)"/><circle cx="980" cy="560" r="12" fill="rgba(203,213,225,0.12)"/><circle cx="1060" cy="560" r="7" fill="rgba(203,213,225,0.12)"/><circle cx="1140" cy="560" r="7" fill="rgba(203,213,225,0.12)"/><circle cx="1220" cy="560" r="12" fill="rgba(203,213,225,0.12)"/><circle cx="1300" cy="560" r="7" fill="rgba(203,213,225,0.12)"/><circle cx="1380" cy="560" r="7" fill="rgba(203,213,225,0.12)"/><circle cx="180" cy="640" r="12" fill="rgba(203,213,225,0.12)"/><circle cx="260" cy="640" r="7" fill="rgba(203,213,225,0.12)"/><circle cx="340" cy="640" r="7" fill="rgba(203,213,225,0.12)"/><circle cx="420" cy="640" r="12" fill="rgba(203,213,225,0.12)"/><circle cx="500" cy="640" r="7" fill="rgba(203,213,225,0.12)"/><circle cx="580" cy="640" r="7" fill="rgba(203,213,225,0.12)"/><circle cx="660" cy="640" r="12" fill="rgba(203,213,225,0.12)"/><circle cx="740" cy="640" r="7" fill="rgba(203,213,225,0.12)"/><circle cx="820" cy="640" r="7" fill="rgba(203,213,225,0.12)"/><circle cx="900" cy="640" r="12" fill="rgba(203,213,225,0.12)"/><circle cx="980" cy="640" r="7" fill="rgba(203,213,225,0.12)"/><circle cx="1060" cy="640" r="7" fill="rgba(203,213,225,0.12)"/><circle cx="1140" cy="640" r="12" fill="rgba(203,213,225,0.12)"/><circle cx="1220" cy="640" r="7" fill="rgba(203,213,225,0.12)"/><circle cx="1300" cy="640" r="7" fill="rgba(203,213,225,0.12)"/><circle cx="1380" cy="640" r="12" fill="rgba(203,213,225,0.12)"/><circle cx="180" cy="720" r="7" fill="rgba(203,213,225,0.12)"/><circle cx="260" cy="720" r="7" fill="rgba(203,213,225,0.12)"/><circle cx="340" cy="720" r="12" fill="rgba(203,213,225,0.12)"/><circle cx="420" cy="720" r="7" fill="rgba(203,213,225,0.12)"/><circle cx="500" cy="720" r="7" fill="rgba(203,213,225,0.12)"/><circle cx="580" cy="720" r="12" fill="rgba(203,213,225,0.12)"/><circle cx="660" cy="720" r="7" fill="rgba(203,213,225,0.12)"/><circle cx="740" cy="720" r="7" fill="rgba(203,213,225,0.12)"/><circle cx="820" cy="720" r="12" fill="rgba(203,213,225,0.12)"/><circle cx="900" cy="720" r="7" fill="rgba(203,213,225,0.12)"/><circle cx="980" cy="720" r="7" fill="rgba(203,213,225,0.12)"/><circle cx="1060" cy="720" r="12" fill="rgba(203,213,225,0.12)"/><circle cx="1140" cy="720" r="7" fill="rgba(203,213,225,0.12)"/><circle cx="1220" cy="720" r="7" fill="rgba(203,213,225,0.12)"/><circle cx="1300" cy="720" r="12" fill="rgba(203,213,225,0.12)"/><circle cx="1380" cy="720" r="7" fill="rgba(203,213,225,0.12)"/><circle cx="180" cy="800" r="7" fill="rgba(203,213,225,0.12)"/><circle cx="260" cy="800" r="12" fill="rgba(203,213,225,0.12)"/><circle cx="340" cy="800" r="7" fill="rgba(203,213,225,0.12)"/><circle cx="420" cy="800" r="7" fill="rgba(203,213,225,0.12)"/><circle cx="500" cy="800" r="12" fill="rgba(203,213,225,0.12)"/><circle cx="580" cy="800" r="7" fill="rgba(203,213,225,0.12)"/><circle cx="660" cy="800" r="7" fill="rgba(203,213,225,0.12)"/><circle cx="740" cy="800" r="12" fill="rgba(203,213,225,0.12)"/><circle cx="820" cy="800" r="7" fill="rgba(203,213,225,0.12)"/><circle cx="900" cy="800" r="7" fill="rgba(203,213,225,0.12)"/><circle cx="980" cy="800" r="12" fill="rgba(203,213,225,0.12)"/><circle cx="1060" cy="800" r="7" fill="rgba(203,213,225,0.12)"/><circle cx="1140" cy="800" r="7" fill="rgba(203,213,225,0.12)"/><circle cx="1220" cy="800" r="12" fill="rgba(203,213,225,0.12)"/><circle cx="1300" cy="800" r="7" fill="rgba(203,213,225,0.12)"/><circle cx="1380" cy="800" r="7" fill="rgba(203,213,225,0.12)"/>
      <rect x="120" y="110" width="1360" height="780" rx="14" fill="none" stroke="rgba(249,115,22,0.25)" stroke-width="2"/>
  <rect width="1600" height="1000" fill="url(#vig)"/>
</svg>