<svg xmlns="http://www.w3.org/2000/svg" viewBox="0 0 1600 1000" width="1600" height="1000">
  <defs>
    <linearGradient id="bg" x1="0" y1="0" x2="1" y2="1">
      <stop offset="0" stop-color="#172033"/><stop offset="1" stop-color="#0c0a09"/>
    </linearGradient>
    <linearGradient id="beam" x1="0" y1="0" x2="1" y2="1">
      <stop offset="0" stop-color="#fdba74"/><stop offset="1" stop-color="#ea580c"/>
    </linearGradient>
    <radialGradient id="glow" cx="78%" cy="12%" r="60%">
      <stop offset="0" stop-color="rgba(249,115,22,0.22)"/><stop offset="1" stop-color="rgba(249,115,22,0)"/>
    </radialGradient>
    <radialGradient id="vig" cx="50%" cy="50%" r="75%">
      <stop offset="55%" stop-color="rgba(0,0,0,0)"/><stop offset="100%" stop-color="rgba(0,0,0,0.55)"/>
    </radialGradient>
    <pattern id="g" width="48" height="48" patternUnits="userSpaceOnUse">
    <path d="M48 0H0V48" fill="none" stroke="rgba(148,163,184,0.08)" stroke-width="1"/>
  </pattern>
  </defs>
  <rect width="1600" height="1000" fill="url(#bg)"/>
  <rect width="1600" height="1000" fill="url(#g)"/>
  <rect width="1600" height="1000" fill="url(#glow)"/>
  <rect x="260" y="220" width="14" height="560" rx="7" fill="rgba(203,213,225,0.14)"/><rect x="355" y="220" width="14" height="560" rx="7" fill="rgba(203,213,225,0.14)"/><rect x="450" y="220" width="14" height="560" rx="7" fill="rgba(203,213,225,0.14)"/><rect x="545" y="220" width="14" height="560" rx="7" fill="rgba(203,213,225,0.14)"/><rect x="640" y="220" width="14" height="560" rx="7" fill="rgba(203,213,225,0.14)"/><rect x="735" y="220" width="14" height="560" rx="7" fill="rgba(203,213,225,0.14)"/><rect x="830" y="220" width="14" height="560" rx="7" fill="rgba(203,213,225,0.14)"/><rect x="925" y="220" width="14" height="560" rx="7" fill="rgba(203,213,225,0.14)"/><rect x="1020" y="220" width="14" height="560" rx="7" fill="rgba(203,213,225,0.14)"/><rect x="1115" y="220" width="14" height="560" rx="7" fill="rgba(203,213,225,0.14)"/><rect x="1210" y="220" width="14" height="560" rx="7" fill="rgba(203,213,225,0.14)"/><rect x="1305" y="220" width="14" height="560" rx="7" fill="rgba(203,213,225,0.14)"/>
      <rect x="240" y="200" width="1130" height="600" rx="10" fill="none" stroke="rgba(203,213,225,0.25)" stroke-width="14"/>
      <line x1="240" y1="500" x2="1370" y2="500" stroke="rgba(249,115,22,0.5)" stroke-width="10"/>
  <rect width="1600" height="1000" fill="url(#vig)"/>
</svg>