<svg xmlns="http://www.w3.org/2000/svg" viewBox="0 0 1600 1000" width="1600" height="1000">
  <defs>
    <linearGradient id="bg" x1="0" y1="0" x2="1" y2="1">
      <stop offset="0" stop-color="#0f172a"/><stop offset="1" stop-color="#020617"/>
    </linearGradient>
    <linearGradient id="beam" x1="0" y1="0" x2="1" y2="1">
      <stop offset="0" stop-color="#fdba74"/><stop offset="1" stop-color="#ea580c"/>
    </linearGradient>
    <radialGradient id="glow" cx="78%" cy="12%" r="60%">
      <stop offset="0" stop-color="rgba(249,115,22,0.22)"/><stop offset="1" stop-color="rgba(249,115,22,0)"/>
    </radialGradient>
    <radialGradient id="vig" cx="50%" cy="50%" r="75%">
      <stop offset="55%" stop-color="rgba(0,0,0,0)"/><stop offset="100%" stop-color="rgba(0,0,0,0.55)"/>
    </radialGradient>
    <pattern id="g" width="48" height="48" patternUnits="userSpaceOnUse">
    <path d="M48 0H0V48" fill="none" stroke="rgba(148,163,184,0.08)" stroke-width="1"/>
  </pattern>
  </defs>
  <rect width="1600" height="1000" fill="url(#bg)"/>
  <rect width="1600" height="1000" fill="url(#g)"/>
  <rect width="1600" height="1000" fill="url(#glow)"/>
  
    <g stroke="rgba(148,163,184,0.35)" stroke-width="2.5" fill="none">
      <path d="M520 360 L980 360 L1080 280 L620 280 Z"/>
      <path d="M520 360 L520 660 L980 660 L980 360"/>
      <path d="M980 360 L1080 280 L1080 580 L980 660"/>
      <path d="M520 660 L620 580 L1080 580 M620 280 L620 580"/>
    </g>
    <g stroke="rgba(249,115,22,0.6)" stroke-width="2">
      <line x1="500" y1="710" x2="980" y2="710"/><line x1="500" y1="700" x2="500" y2="720"/><line x1="980" y1="700" x2="980" y2="720"/>
    </g>
    <circle cx="520" cy="360" r="6" fill="#fb923c"/><circle cx="980" cy="660" r="6" fill="#fb923c"/>
  <rect width="1600" height="1000" fill="url(#vig)"/>
</svg>