<svg xmlns="http://www.w3.org/2000/svg" viewBox="0 0 1600 1000" width="1600" height="1000">
  <defs>
    <linearGradient id="bg" x1="0" y1="0" x2="1" y2="1">
      <stop offset="0" stop-color="#172033"/><stop offset="1" stop-color="#0c0a09"/>
    </linearGradient>
    <linearGradient id="beam" x1="0" y1="0" x2="1" y2="1">
      <stop offset="0" stop-color="#fdba74"/><stop offset="1" stop-color="#ea580c"/>
    </linearGradient>
    <radialGradient id="glow" cx="78%" cy="12%" r="60%">
      <stop offset="0" stop-color="rgba(249,115,22,0.22)"/><stop offset="1" stop-color="rgba(249,115,22,0)"/>
    </radialGradient>
    <radialGradient id="vig" cx="50%" cy="50%" r="75%">
      <stop offset="55%" stop-color="rgba(0,0,0,0)"/><stop offset="100%" stop-color="rgba(0,0,0,0.55)"/>
    </radialGradient>
    <pattern id="g" width="48" height="48" patternUnits="userSpaceOnUse">
    <path d="M48 0H0V48" fill="none" stroke="rgba(148,163,184,0.08)" stroke-width="1"/>
  </pattern>
  </defs>
  <rect width="1600" height="1000" fill="url(#bg)"/>
  <rect width="1600" height="1000" fill="url(#g)"/>
  <rect width="1600" height="1000" fill="url(#glow)"/>
  
    <radialGradient id="arc" cx="50%" cy="50%" r="50%">
      <stop offset="0" stop-color="#fed7aa"/><stop offset="0.4" stop-color="#fb923c"/>
      <stop offset="1" stop-color="rgba(249,115,22,0)"/>
    </radialGradient>
    <line x1="300" y1="780" x2="760" y2="500" stroke="rgba(203,213,225,0.5)" stroke-width="16" stroke-linecap="round"/>
    <circle cx="800" cy="470" r="120" fill="url(#arc)"/>
    <g stroke="#fb923c" stroke-width="3" stroke-linecap="round" opacity="0.9">
      <line x1="800" y1="470" x2="900" y2="380"/><line x1="800" y1="470" x2="920" y2="500"/>
      <line x1="800" y1="470" x2="860" y2="600"/><line x1="800" y1="470" x2="700" y2="560"/>
    </g>
    <line x1="560" y1="640" x2="1240" y2="640" stroke="rgba(148,163,184,0.18)" stroke-width="40"/>
  <rect width="1600" height="1000" fill="url(#vig)"/>
</svg>