<svg xmlns="http://www.w3.org/2000/svg" viewBox="0 0 1600 1000" width="1600" height="1000">
  <defs>
    <linearGradient id="bg" x1="0" y1="0" x2="1" y2="1">
      <stop offset="0" stop-color="#0f172a"/><stop offset="1" stop-color="#020617"/>
    </linearGradient>
    <linearGradient id="beam" x1="0" y1="0" x2="1" y2="1">
      <stop offset="0" stop-color="#fdba74"/><stop offset="1" stop-color="#ea580c"/>
    </linearGradient>
    <radialGradient id="glow" cx="78%" cy="12%" r="60%">
      <stop offset="0" stop-color="rgba(249,115,22,0.22)"/><stop offset="1" stop-color="rgba(249,115,22,0)"/>
    </radialGradient>
    <radialGradient id="vig" cx="50%" cy="50%" r="75%">
      <stop offset="55%" stop-color="rgba(0,0,0,0)"/><stop offset="100%" stop-color="rgba(0,0,0,0.55)"/>
    </radialGradient>
    <pattern id="g" width="48" height="48" patternUnits="userSpaceOnUse">
    <path d="M48 0H0V48" fill="none" stroke="rgba(148,163,184,0.08)" stroke-width="1"/>
  </pattern>
  </defs>
  <rect width="1600" height="1000" fill="url(#bg)"/>
  <rect width="1600" height="1000" fill="url(#g)"/>
  <rect width="1600" height="1000" fill="url(#glow)"/>
  
    <rect x="380" y="360" width="840" height="300" rx="10" fill="rgba(148,163,184,0.06)" stroke="rgba(203,213,225,0.18)"/>
    <line x1="200" y1="120" x2="900" y2="520" stroke="url(#beam)" stroke-width="5"/>
    <circle cx="900" cy="520" r="10" fill="#fb923c"/>
    <g fill="#fb923c" opacity="0.85">
      <circle cx="930" cy="540" r="3"/><circle cx="870" cy="560" r="2.5"/>
      <circle cx="950" cy="500" r="2"/><circle cx="905" cy="575" r="2.5"/>
    </g>
    <path d="M520 510 q120 -60 240 0" fill="none" stroke="rgba(249,115,22,0.5)" stroke-width="3" stroke-dasharray="2 14" stroke-linecap="round"/>
  <rect width="1600" height="1000" fill="url(#vig)"/>
</svg>