<svg xmlns="http://www.w3.org/2000/svg" viewBox="0 0 1600 1000" width="1600" height="1000">
  <defs>
    <linearGradient id="bg" x1="0" y1="0" x2="1" y2="1">
      <stop offset="0" stop-color="#172033"/><stop offset="1" stop-color="#0c0a09"/>
    </linearGradient>
    <linearGradient id="beam" x1="0" y1="0" x2="1" y2="1">
      <stop offset="0" stop-color="#fdba74"/><stop offset="1" stop-color="#ea580c"/>
    </linearGradient>
    <radialGradient id="glow" cx="78%" cy="12%" r="60%">
      <stop offset="0" stop-color="rgba(249,115,22,0.22)"/><stop offset="1" stop-color="rgba(249,115,22,0)"/>
    </radialGradient>
    <radialGradient id="vig" cx="50%" cy="50%" r="75%">
      <stop offset="55%" stop-color="rgba(0,0,0,0)"/><stop offset="100%" stop-color="rgba(0,0,0,0.55)"/>
    </radialGradient>
    <pattern id="g" width="48" height="48" patternUnits="userSpaceOnUse">
    <path d="M48 0H0V48" fill="none" stroke="rgba(148,163,184,0.08)" stroke-width="1"/>
  </pattern>
  </defs>
  <rect width="1600" height="1000" fill="url(#bg)"/>
  <rect width="1600" height="1000" fill="url(#g)"/>
  <rect width="1600" height="1000" fill="url(#glow)"/>
  
    <g fill="rgba(148,163,184,0.10)" stroke="rgba(203,213,225,0.16)">
      <rect x="180" y="560" width="300" height="300" rx="10"/>
      <rect x="560" y="480" width="260" height="380" rx="10"/>
      <rect x="900" y="600" width="220" height="260" rx="10"/>
      <rect x="1200" y="520" width="240" height="340" rx="10"/>
    </g>
    <g stroke="rgba(249,115,22,0.5)" stroke-width="6" stroke-linecap="round">
      <line x1="300" y1="160" x2="340" y2="160"/><line x1="690" y1="120" x2="730" y2="120"/>
      <line x1="1010" y1="180" x2="1050" y2="180"/><line x1="1320" y1="140" x2="1360" y2="140"/>
    </g>
    <ellipse cx="320" cy="200" rx="120" ry="40" fill="rgba(249,115,22,0.10)"/>
    <ellipse cx="710" cy="160" rx="120" ry="40" fill="rgba(249,115,22,0.10)"/>
  <rect width="1600" height="1000" fill="url(#vig)"/>
</svg>